<svg width="103" height="40" viewBox="0 0 103 40" fill="none" xmlns="http://www.w3.org/2000/svg">
<path fill-rule="evenodd" clip-rule="evenodd" d="M80.915 9.64436L85.3625 5.19548C86.5389 4.0191 87.9691 3.42674 89.6324 3.42674H102.778L86.7608 19.4438C86.7123 15.5582 83.7338 12.1844 80.9136 9.64436H80.915ZM102.779 37.1381H89.6338C87.9705 37.1381 86.5389 36.5444 85.3625 35.368C85.2169 35.2245 84.1109 34.1168 83.0382 33.0422L83.0356 33.0396C81.9931 31.9954 80.9827 30.9833 80.9164 30.9191C83.738 28.3763 86.7123 25.0108 86.7622 21.121L102.779 37.1381ZM50.114 0.563477H64.6676C67.1619 0.563477 69.3079 1.4527 71.0711 3.21588C72.8937 5.11457 74.6418 6.7942 76.2381 8.32799L76.2381 8.328C85.2009 16.9399 89.3786 20.954 75.0902 33.329L71.0711 37.3475C69.3065 39.1107 67.1618 39.9999 64.6676 39.9999H50.114L69.8309 20.2831L69.8309 20.283C67.4247 17.8771 63.743 14.1942 60.2041 10.6541C55.3639 5.81233 50.791 1.23786 50.114 0.563477ZM75.8484 13.6843H69.8863V26.8086H75.8484C77.2734 26.8086 78.5296 26.5399 79.617 26.0024C80.7169 25.4524 81.5669 24.6837 82.1669 23.6963C82.7793 22.7088 83.0856 21.5589 83.0856 20.2464C83.0856 18.934 82.7793 17.7841 82.1669 16.7966C81.5669 15.8092 80.7169 15.0467 79.617 14.5092C78.5296 13.9593 77.2734 13.6843 75.8484 13.6843ZM78.8295 23.2275C78.0546 23.9525 77.0109 24.315 75.6985 24.315H72.9236V16.1779H75.6985C77.0109 16.1779 78.0546 16.5466 78.8295 17.2841C79.617 18.0091 80.0107 18.9965 80.0107 20.2464C80.0107 21.4964 79.617 22.4901 78.8295 23.2275Z" fill="currentColor"/>
<path d="M2.32488 26.6638C3.29983 26.9387 4.30602 27.0762 5.34347 27.0762C6.54341 27.0762 7.5621 26.895 8.39956 26.5325C9.23701 26.17 9.86198 25.6826 10.2745 25.0701C10.6994 24.4451 10.9119 23.7577 10.9119 23.0077C10.9119 22.1327 10.6807 21.439 10.2182 20.9266C9.76824 20.4141 9.22451 20.0391 8.58705 19.8016C7.94958 19.5641 7.13088 19.3266 6.13093 19.0892C5.16848 18.8767 4.44977 18.6642 3.97479 18.4517C3.51232 18.2267 3.28108 17.8892 3.28108 17.4392C3.28108 16.9893 3.48107 16.6268 3.88105 16.3518C4.29352 16.0768 4.92474 15.9393 5.7747 15.9393C6.98713 15.9393 8.19957 16.2831 9.412 16.9705L10.3495 14.6644C9.74949 14.2894 9.04952 14.0019 8.24957 13.8019C7.44961 13.6019 6.6309 13.502 5.79345 13.502C4.59351 13.502 3.57481 13.6832 2.73736 14.0457C1.9124 14.4082 1.29368 14.9019 0.881204 15.5268C0.468725 16.1393 0.262486 16.8268 0.262486 17.5892C0.262486 18.4642 0.487474 19.1642 0.937451 19.6891C1.39993 20.2141 1.9499 20.5953 2.58736 20.8328C3.22483 21.0703 4.04354 21.3078 5.04348 21.5453C5.69345 21.6953 6.20592 21.8328 6.5809 21.9578C6.96838 22.0827 7.28087 22.2515 7.51835 22.464C7.76834 22.664 7.89333 22.9202 7.89333 23.2327C7.89333 23.6577 7.6871 24.0014 7.27462 24.2639C6.86214 24.5139 6.22467 24.6389 5.36222 24.6389C4.58726 24.6389 3.8123 24.5139 3.03734 24.2639C2.26238 24.0139 1.59367 23.6827 1.0312 23.2702L0 25.5576C0.587469 26.0075 1.36243 26.3763 2.32488 26.6638Z" fill="currentColor"/>
<path fill-rule="evenodd" clip-rule="evenodd" d="M18.6683 13.7269C19.8307 13.7269 20.8369 13.9207 21.6869 14.3082C22.5493 14.6956 23.2118 15.2456 23.6743 15.9581C24.1368 16.6705 24.368 17.5142 24.368 18.4892C24.368 19.4516 24.1368 20.2953 23.6743 21.0203C23.2118 21.7328 22.5493 22.2827 21.6869 22.6702C20.8369 23.0452 19.8307 23.2327 18.6683 23.2327H16.0247V26.8512H12.9874V13.7269H18.6683ZM18.4996 20.7578C19.412 20.7578 20.1057 20.5641 20.5807 20.1766C21.0557 19.7766 21.2932 19.2142 21.2932 18.4892C21.2932 17.7517 21.0557 17.1893 20.5807 16.8018C20.1057 16.4018 19.412 16.2018 18.4996 16.2018H16.0247V20.7578H18.4996Z" fill="currentColor"/>
<path fill-rule="evenodd" clip-rule="evenodd" d="M32.3674 23.1952L34.8985 26.8512H38.1608L35.2172 22.6327C36.0797 22.2577 36.7422 21.7203 37.2046 21.0203C37.6796 20.3078 37.9171 19.4641 37.9171 18.4892C37.9171 17.5142 37.6859 16.6705 37.2234 15.9581C36.7609 15.2456 36.0984 14.6956 35.236 14.3082C34.386 13.9207 33.3798 13.7269 32.2174 13.7269H26.5364V26.8512H29.5738V23.1952H32.3674ZM34.1298 16.8018C34.6048 17.1893 34.8423 17.7517 34.8423 18.4892C34.8423 19.2142 34.6048 19.7766 34.1298 20.1766C33.6548 20.5766 32.9611 20.7766 32.0487 20.7766H29.5738V16.2018H32.0487C32.9611 16.2018 33.6548 16.4018 34.1298 16.8018Z" fill="currentColor"/>
<path d="M50.4855 24.4139V26.8512H40.3236V13.7269H50.2418V16.1643H43.3421V19.0142H49.4356V21.3765H43.3421V24.4139H50.4855Z" fill="currentColor"/>
<path fill-rule="evenodd" clip-rule="evenodd" d="M61.5455 24.0389H55.4521L54.2897 26.8512H51.1773L57.027 13.7269H60.0269L64.7843 24.3667L62.5886 26.5624L61.5455 24.0389ZM60.5893 21.7328L58.5082 16.708L56.4271 21.7328H60.5893Z" fill="currentColor"/>
</svg>
