<?xml version="1.0" standalone="no"?>
<!DOCTYPE svg PUBLIC "-//W3C//DTD SVG 20010904//EN"
 "http://www.w3.org/TR/2001/REC-SVG-20010904/DTD/svg10.dtd">
<svg version="1.0" xmlns="http://www.w3.org/2000/svg"
 width="978.000000pt" height="978.000000pt" viewBox="0 0 978.000000 978.000000"
 preserveAspectRatio="xMidYMid meet">
<metadata>
Created by potrace 1.14, written by Peter Selinger 2001-2017
</metadata>
<g transform="translate(0.000000,978.000000) scale(0.100000,-0.100000)"
fill="#000000" stroke="none">
<path d="M4807 9774 c-1 -1 -69 -5 -152 -8 -82 -4 -161 -9 -175 -10 -14 -2
-61 -7 -104 -11 -43 -4 -86 -8 -95 -10 -9 -1 -38 -6 -66 -9 -57 -8 -148 -23
-185 -30 -13 -3 -42 -8 -63 -11 -21 -4 -77 -15 -125 -26 -120 -27 -121 -27
-142 -34 -10 -3 -27 -7 -37 -9 -85 -17 -459 -137 -546 -175 -23 -10 -73 -31
-112 -46 -197 -80 -492 -233 -717 -374 -384 -240 -797 -595 -1095 -941 -415
-483 -742 -1058 -939 -1657 -51 -154 -117 -389 -129 -460 -3 -18 -12 -61 -20
-95 -8 -35 -19 -92 -25 -128 -5 -36 -12 -76 -14 -90 -3 -14 -8 -47 -11 -75 -4
-27 -8 -61 -10 -75 -2 -14 -7 -54 -10 -90 -4 -36 -9 -78 -11 -95 -21 -167 -20
-696 1 -860 2 -16 7 -59 10 -95 7 -78 13 -127 20 -160 2 -14 7 -49 10 -79 3
-30 8 -57 9 -60 2 -3 7 -24 10 -46 10 -66 36 -185 58 -270 11 -44 22 -91 24
-105 11 -60 112 -373 167 -515 93 -243 248 -559 369 -755 109 -175 225 -344
345 -500 21 -28 187 -225 223 -265 19 -21 96 -100 170 -175 521 -523 1167
-927 1862 -1165 252 -87 557 -164 788 -199 219 -34 247 -37 450 -53 185 -15
733 -8 850 11 14 2 52 7 85 10 33 4 71 8 85 11 14 2 57 8 95 14 124 19 138 22
250 46 317 68 676 182 935 298 80 35 383 185 440 218 400 226 734 481 1066
813 406 407 695 811 940 1313 133 273 286 683 329 881 2 9 15 62 29 117 14 55
27 111 29 125 5 27 37 192 43 224 2 11 8 56 14 100 6 45 13 95 16 111 2 17 6
57 9 90 3 33 8 94 12 135 14 170 7 710 -12 845 -2 17 -7 55 -10 86 -3 30 -7
66 -10 80 -2 13 -6 42 -9 64 -4 22 -8 51 -11 65 -2 14 -6 41 -9 60 -3 19 -10
60 -16 90 -6 30 -13 66 -16 80 -16 93 -91 366 -144 529 -133 405 -332 810
-583 1186 -63 94 -222 310 -247 335 -3 3 -41 48 -85 100 -327 388 -741 741
-1193 1019 -46 28 -86 51 -88 51 -2 0 -21 11 -42 24 -39 25 -300 157 -392 199
-93 43 -301 125 -408 162 -228 78 -601 174 -779 200 -194 28 -259 36 -318 41
-33 3 -73 7 -90 9 -57 8 -491 24 -498 19z"/>
</g>
</svg>
